<svg width="95" height="25" viewBox="0 0 95 25" fill="none" xmlns="http://www.w3.org/2000/svg">
<path d="M0.00011891 20.4531L12.1979 5.52592H0.471858V0.673742H18.836V4.81831L7.21099 19.7455H18.9708V24.5977H0.00011891V20.4531ZM20.7261 19.3074C20.7261 18.1393 21.0518 17.1172 21.7033 16.2411C22.3547 15.365 23.2533 14.6799 24.3989 14.1857C25.5446 13.669 26.8587 13.4107 28.3413 13.4107C29.0602 13.4107 29.7678 13.4781 30.4641 13.6129C31.1605 13.7252 31.767 13.8937 32.2837 14.1183V13.3433C32.2837 12.3774 31.9917 11.6361 31.4076 11.1194C30.8236 10.6027 29.9363 10.3444 28.7457 10.3444C27.7573 10.3444 26.825 10.5129 25.9489 10.8498C25.0953 11.1868 24.1855 11.6698 23.2196 12.2987L21.6022 8.86179C22.7703 8.09802 23.9834 7.52519 25.2413 7.14331C26.5218 6.76142 27.8696 6.57048 29.2848 6.57048C31.9355 6.57048 33.991 7.2107 35.4511 8.49113C36.9337 9.7491 37.675 11.5799 37.675 13.9835V18.5998C37.675 19.139 37.7536 19.5208 37.9109 19.7455C38.0906 19.9477 38.3939 20.0712 38.8207 20.1161V24.5977C38.3714 24.6875 37.9446 24.7549 37.5402 24.7998C37.1584 24.8448 36.8214 24.8672 36.5294 24.8672C35.5185 24.8672 34.7435 24.665 34.2044 24.2607C33.6877 23.8564 33.362 23.306 33.2272 22.6096L33.1261 21.8346C32.3399 22.8455 31.3964 23.6205 30.2957 24.1596C29.2174 24.6763 28.083 24.9346 26.8924 24.9346C25.7243 24.9346 24.6685 24.6875 23.725 24.1933C22.804 23.6991 22.0739 23.0252 21.5348 22.1716C20.9957 21.3179 20.7261 20.3632 20.7261 19.3074ZM31.4413 19.9814C31.6884 19.7792 31.8906 19.5545 32.0478 19.3074C32.2051 19.0603 32.2837 18.8245 32.2837 18.5998V17.0161C31.8344 16.8364 31.329 16.7016 30.7674 16.6118C30.2283 16.4995 29.7228 16.4433 29.2511 16.4433C28.2627 16.4433 27.4428 16.6679 26.7913 17.1172C26.1399 17.544 25.8141 18.1169 25.8141 18.8357C25.8141 19.24 25.9265 19.6107 26.1511 19.9477C26.3757 20.2846 26.679 20.5542 27.0609 20.7564C27.4652 20.9585 27.937 21.0596 28.4761 21.0596C29.0152 21.0596 29.5544 20.9585 30.0935 20.7564C30.6326 20.5542 31.0819 20.2958 31.4413 19.9814ZM52.8023 11.5237C51.4994 11.5237 50.32 11.7371 49.2642 12.164C48.2084 12.5683 47.4447 13.1748 46.9729 13.9835V24.5977H41.5816V6.90744H46.5349V10.4792C47.1414 9.2886 47.9276 8.35635 48.8936 7.68244C49.8595 7.00853 50.8704 6.66034 51.9262 6.63787C52.1733 6.63787 52.353 6.63787 52.4653 6.63787C52.6001 6.63787 52.7124 6.6491 52.8023 6.67157V11.5237ZM66.2937 11.5237C64.9908 11.5237 63.8114 11.7371 62.7556 12.164C61.6998 12.5683 60.9361 13.1748 60.4643 13.9835V24.5977H55.073V6.90744H60.0263V10.4792C60.6328 9.2886 61.419 8.35635 62.385 7.68244C63.3509 7.00853 64.3618 6.66034 65.4176 6.63787C65.6647 6.63787 65.8444 6.63787 65.9567 6.63787C66.0915 6.63787 66.2038 6.6491 66.2937 6.67157V11.5237ZM68.5645 24.5977V6.90744H73.9558V24.5977H68.5645ZM68.5645 4.8857V-0.000170359H73.9558V4.8857H68.5645ZM94.6965 24.5977H89.3052V14.6574C89.3052 13.4893 89.0805 12.6469 88.6313 12.1303C88.2045 11.5911 87.6316 11.3216 86.9128 11.3216C86.4186 11.3216 85.9132 11.4564 85.3965 11.7259C84.8798 11.9955 84.4081 12.3661 83.9813 12.8379C83.5769 13.3096 83.2624 13.8487 83.0378 14.4553V24.5977H77.6465V6.90744H82.4987V9.87266C82.9479 9.17628 83.5095 8.58099 84.1834 8.08679C84.8574 7.59258 85.6324 7.22193 86.5084 6.97483C87.3845 6.70526 88.3392 6.57048 89.3726 6.57048C90.5182 6.57048 91.4392 6.78389 92.1356 7.2107C92.8545 7.61505 93.3936 8.15418 93.753 8.82809C94.1349 9.502 94.382 10.2321 94.4943 11.0183C94.6291 11.7821 94.6965 12.5346 94.6965 13.2759V24.5977Z" fill="#333333"/>
</svg>
