<svg width="75" height="75" viewBox="0 0 75 75" fill="none" xmlns="http://www.w3.org/2000/svg">
<rect x="0.5" y="0.5" width="74" height="74" rx="14.5" stroke="#E2E8F0"/>
<path d="M43.1379 30.2846C40.6967 30.2846 39.665 31.4495 37.9648 31.4495C36.2217 31.4495 34.892 30.2931 32.7765 30.2931C30.7058 30.2931 28.4977 31.5573 27.0954 33.711C25.1264 36.748 25.4607 42.4678 28.6497 47.3407C29.7904 49.085 31.3137 51.0413 33.3118 51.0625H33.3481C35.0846 51.0625 35.6004 49.9254 37.9902 49.9121H38.0266C40.3806 49.9121 40.8529 51.0558 42.5821 51.0558H42.6184C44.6165 51.0346 46.2216 48.867 47.3623 47.1294C48.1833 45.8797 48.4884 45.2524 49.1181 43.8386C44.5051 42.0876 43.764 35.5479 48.3262 33.0407C46.9336 31.297 44.9767 30.287 43.1319 30.287L43.1379 30.2846Z" fill="#2D3748"/>
<path d="M42.6008 23.939C41.1477 24.0377 39.4524 24.9629 38.4594 26.1708C37.5585 27.2655 36.8174 28.8893 37.108 30.4642H37.2243C38.7719 30.4642 40.3558 29.5323 41.2809 28.3384C42.1722 27.2019 42.8479 25.5913 42.6008 23.939Z" fill="#2D3748"/>
</svg>
