<svg width="12" height="12" viewBox="0 0 12 12" fill="none" xmlns="http://www.w3.org/2000/svg">
<path d="M10.3144 7.9992C10.2755 7.95233 10.2373 7.90545 10.1998 7.86022C9.68421 7.23655 9.37225 6.86014 9.37225 5.0946C9.37225 4.18054 9.15358 3.43054 8.72257 2.86804C8.40475 2.45249 7.97514 2.13726 7.40889 1.90429C7.40161 1.90023 7.3951 1.89492 7.38968 1.88858C7.186 1.20655 6.62866 0.749756 6.00007 0.749756C5.37147 0.749756 4.81436 1.20655 4.61069 1.88788C4.60526 1.89398 4.59884 1.89913 4.59171 1.90311C3.2703 2.4471 2.62812 3.49077 2.62812 5.09389C2.62812 6.86014 2.31663 7.23655 1.80054 7.85952C1.76304 7.90475 1.72484 7.95069 1.68593 7.9985C1.58543 8.1197 1.52175 8.26716 1.50244 8.42342C1.48313 8.57967 1.50898 8.7382 1.57694 8.88022C1.72155 9.18491 2.02976 9.37405 2.38155 9.37405H9.62116C9.97131 9.37405 10.2774 9.18514 10.4225 8.88186C10.4907 8.7398 10.5168 8.58115 10.4977 8.42471C10.4785 8.26827 10.4149 8.1206 10.3144 7.9992Z" fill="#718096"/>
<path d="M5.99999 11.25C6.33867 11.2497 6.67096 11.1578 6.96162 10.9839C7.25228 10.8101 7.49047 10.5608 7.65092 10.2626C7.65848 10.2483 7.66222 10.2323 7.66176 10.2161C7.66131 10.2 7.65668 10.1842 7.64833 10.1703C7.63998 10.1565 7.62819 10.145 7.61411 10.1371C7.60002 10.1292 7.58412 10.125 7.56796 10.125H4.43249C4.4163 10.1249 4.40037 10.1291 4.38626 10.137C4.37214 10.1449 4.36032 10.1564 4.35194 10.1702C4.34356 10.1841 4.33891 10.1999 4.33845 10.2161C4.33798 10.2322 4.34172 10.2483 4.34929 10.2626C4.50972 10.5608 4.74788 10.81 5.03849 10.9839C5.3291 11.1577 5.66135 11.2497 5.99999 11.25Z" fill="#718096"/>
</svg>
