<svg width="65" height="25" viewBox="0 0 65 25" fill="none" xmlns="http://www.w3.org/2000/svg">
<rect width="65" height="25" rx="8" fill="#CBD5E0"/>
<path d="M16.0908 15.9961C16.9248 15.9961 17.5856 15.6885 18.0732 15.0732C18.5654 14.458 18.8115 13.583 18.8115 12.4482C18.8115 11.318 18.5654 10.4453 18.0732 9.83008C17.5856 9.21029 16.9248 8.90039 16.0908 8.90039C15.2568 8.90039 14.5915 9.20801 14.0947 9.82324C13.598 10.4385 13.3496 11.3135 13.3496 12.4482C13.3496 13.583 13.598 14.458 14.0947 15.0732C14.5915 15.6885 15.2568 15.9961 16.0908 15.9961ZM20.917 12.4482C20.917 14.2575 20.4089 15.6429 19.3926 16.6045C18.6315 17.3883 17.5309 17.7803 16.0908 17.7803C14.6507 17.7803 13.5501 17.3883 12.7891 16.6045C11.7682 15.6429 11.2578 14.2575 11.2578 12.4482C11.2578 10.6025 11.7682 9.21712 12.7891 8.29199C13.5501 7.50814 14.6507 7.11621 16.0908 7.11621C17.5309 7.11621 18.6315 7.50814 19.3926 8.29199C20.4089 9.21712 20.917 10.6025 20.917 12.4482ZM25.1211 7.32129C25.2441 7.32129 25.3558 7.32585 25.4561 7.33496C25.5563 7.33952 25.693 7.34863 25.8662 7.3623V8.94824C25.7568 8.93457 25.5723 8.92546 25.3125 8.9209C25.0573 8.91178 24.8796 8.96875 24.7793 9.0918C24.6836 9.21029 24.6357 9.34245 24.6357 9.48828C24.6357 9.63411 24.6357 9.84375 24.6357 10.1172H25.9141V11.4912H24.6357V17.5H22.6943V11.4912H21.6074V10.1172H22.6738V9.63867C22.6738 8.84115 22.8083 8.29199 23.0771 7.99121C23.3597 7.5446 24.041 7.32129 25.1211 7.32129ZM31.7793 7.42383H33.7207V17.5H31.7793V7.42383ZM29.8311 7.32129C29.9495 7.32129 30.0703 7.32585 30.1934 7.33496C30.3164 7.34408 30.444 7.35319 30.5762 7.3623V8.94824C30.485 8.94368 30.3962 8.94141 30.3096 8.94141C30.223 8.93685 30.1182 8.93457 29.9951 8.93457C29.6898 8.93457 29.5029 9.01888 29.4346 9.1875C29.3662 9.35612 29.3366 9.62044 29.3457 9.98047V10.1172H30.624V11.4912H29.3457V17.5H27.4043V11.4912H26.3174V10.1172H27.3838V9.63867C27.3838 8.8457 27.5592 8.25553 27.9102 7.86816C28.2246 7.50358 28.8649 7.32129 29.8311 7.32129ZM37.5967 9.16016H35.6211V7.3623H37.5967V9.16016ZM35.6211 10.0488H37.5967V17.5H35.6211V10.0488ZM43.6191 9.87109C44.3893 9.87109 45.0182 10.0739 45.5059 10.4795C45.998 10.8805 46.2441 11.5482 46.2441 12.4824V17.5H44.248V12.9678C44.248 12.5758 44.1956 12.2751 44.0908 12.0654C43.8994 11.6826 43.5348 11.4912 42.9971 11.4912C42.3363 11.4912 41.8828 11.7715 41.6367 12.332C41.5091 12.6283 41.4453 13.0065 41.4453 13.4668V17.5H39.5039V10.0625H41.3838V11.1494C41.6344 10.7666 41.8714 10.4909 42.0947 10.3223C42.4958 10.0215 43.0039 9.87109 43.6191 9.87109ZM50.9883 11.457C50.5371 11.457 50.1862 11.5983 49.9355 11.8809C49.6895 12.1634 49.5345 12.5462 49.4707 13.0293H52.499C52.4671 12.5143 52.3099 12.1247 52.0273 11.8604C51.7493 11.5915 51.403 11.457 50.9883 11.457ZM50.9883 9.85059C51.6081 9.85059 52.1663 9.9668 52.6631 10.1992C53.1598 10.4316 53.57 10.7985 53.8936 11.2998C54.1852 11.7419 54.3743 12.2546 54.4609 12.8379C54.5111 13.1797 54.5316 13.6719 54.5225 14.3145H49.4229C49.4502 15.0618 49.6849 15.5859 50.127 15.8867C50.3958 16.0736 50.7194 16.167 51.0977 16.167C51.4987 16.167 51.8245 16.0531 52.0752 15.8252C52.2119 15.7021 52.3327 15.5312 52.4375 15.3125H54.4268C54.3766 15.7546 54.1465 16.2035 53.7363 16.6592C53.0983 17.3838 52.2051 17.7461 51.0566 17.7461C50.1087 17.7461 49.2725 17.4408 48.5479 16.8301C47.8232 16.2194 47.4609 15.2259 47.4609 13.8496C47.4609 12.5599 47.7868 11.571 48.4385 10.8828C49.0947 10.1947 49.9447 9.85059 50.9883 9.85059Z" fill="white"/>
</svg>
