<svg width="65" height="25" viewBox="0 0 65 25" fill="none" xmlns="http://www.w3.org/2000/svg">
<rect width="65" height="25" rx="8" fill="#48BB78"/>
<path d="M16.2236 15.9962C17.0576 15.9962 17.7184 15.6885 18.2061 15.0733C18.6982 14.4581 18.9443 13.5831 18.9443 12.4483C18.9443 11.3181 18.6982 10.4454 18.2061 9.83014C17.7184 9.21035 17.0576 8.90045 16.2236 8.90045C15.3896 8.90045 14.7243 9.20807 14.2275 9.8233C13.7308 10.4385 13.4824 11.3135 13.4824 12.4483C13.4824 13.5831 13.7308 14.4581 14.2275 15.0733C14.7243 15.6885 15.3896 15.9962 16.2236 15.9962ZM21.0498 12.4483C21.0498 14.2575 20.5417 15.643 19.5254 16.6046C18.7643 17.3884 17.6637 17.7803 16.2236 17.7803C14.7835 17.7803 13.6829 17.3884 12.9219 16.6046C11.901 15.643 11.3906 14.2575 11.3906 12.4483C11.3906 10.6026 11.901 9.21718 12.9219 8.29205C13.6829 7.5082 14.7835 7.11627 16.2236 7.11627C17.6637 7.11627 18.7643 7.5082 19.5254 8.29205C20.5417 9.21718 21.0498 10.6026 21.0498 12.4483ZM26.6348 9.87115C27.4049 9.87115 28.0339 10.074 28.5215 10.4796C29.0137 10.8806 29.2598 11.5482 29.2598 12.4825V17.5001H27.2637V12.9678C27.2637 12.5759 27.2113 12.2751 27.1064 12.0655C26.915 11.6827 26.5505 11.4913 26.0127 11.4913C25.3519 11.4913 24.8984 11.7715 24.6523 12.3321C24.5247 12.6283 24.4609 13.0066 24.4609 13.4669V17.5001H22.5195V10.0626H24.3994V11.1495C24.6501 10.7667 24.887 10.4909 25.1104 10.3223C25.5114 10.0215 26.0195 9.87115 26.6348 9.87115ZM33.0537 17.5001H31.1055V7.42389H33.0537V17.5001ZM36.9639 9.16022H34.9883V7.36237H36.9639V9.16022ZM34.9883 10.0489H36.9639V17.5001H34.9883V10.0489ZM42.9863 9.87115C43.7565 9.87115 44.3854 10.074 44.873 10.4796C45.3652 10.8806 45.6113 11.5482 45.6113 12.4825V17.5001H43.6152V12.9678C43.6152 12.5759 43.5628 12.2751 43.458 12.0655C43.2666 11.6827 42.902 11.4913 42.3643 11.4913C41.7035 11.4913 41.25 11.7715 41.0039 12.3321C40.8763 12.6283 40.8125 13.0066 40.8125 13.4669V17.5001H38.8711V10.0626H40.751V11.1495C41.0016 10.7667 41.2386 10.4909 41.4619 10.3223C41.863 10.0215 42.3711 9.87115 42.9863 9.87115ZM50.3555 11.4571C49.9043 11.4571 49.5534 11.5984 49.3027 11.8809C49.0566 12.1635 48.9017 12.5463 48.8379 13.0294H51.8662C51.8343 12.5144 51.6771 12.1247 51.3945 11.8604C51.1165 11.5915 50.7702 11.4571 50.3555 11.4571ZM50.3555 9.85065C50.9753 9.85065 51.5335 9.96686 52.0303 10.1993C52.527 10.4317 52.9372 10.7986 53.2607 11.2999C53.5524 11.7419 53.7415 12.2546 53.8281 12.838C53.8783 13.1797 53.8988 13.6719 53.8896 14.3145H48.79C48.8174 15.0619 49.0521 15.586 49.4941 15.8868C49.763 16.0736 50.0866 16.1671 50.4648 16.1671C50.8659 16.1671 51.1917 16.0531 51.4424 15.8253C51.5791 15.7022 51.6999 15.5313 51.8047 15.3126H53.7939C53.7438 15.7546 53.5137 16.2035 53.1035 16.6592C52.4655 17.3839 51.5723 17.7462 50.4238 17.7462C49.4759 17.7462 48.6396 17.4408 47.915 16.8301C47.1904 16.2195 46.8281 15.226 46.8281 13.8497C46.8281 12.56 47.154 11.571 47.8057 10.8829C48.4619 10.1947 49.3118 9.85065 50.3555 9.85065Z" fill="white"/>
</svg>
