<svg width="12" height="12" viewBox="0 0 12 12" fill="none" xmlns="http://www.w3.org/2000/svg">
<path d="M5.99997 4.12512C5.62913 4.12512 5.26662 4.23509 4.95828 4.44112C4.64993 4.64714 4.40961 4.93998 4.2677 5.28259C4.12578 5.6252 4.08865 6.0022 4.161 6.36591C4.23335 6.72963 4.41192 7.06372 4.67415 7.32595C4.93637 7.58817 5.27046 7.76675 5.63418 7.83909C5.99789 7.91144 6.37489 7.87431 6.7175 7.73239C7.06011 7.59048 7.35295 7.35016 7.55897 7.04181C7.765 6.73347 7.87497 6.37096 7.87497 6.00012C7.87349 5.5033 7.67546 5.02724 7.32415 4.67593C6.97285 4.32463 6.49679 4.1266 5.99997 4.12512ZM10.0481 6.00012C10.0471 6.17532 10.0343 6.35025 10.0097 6.52371L11.1508 7.41715C11.2005 7.45819 11.234 7.51557 11.2453 7.57903C11.2566 7.64248 11.245 7.70789 11.2125 7.76356L10.1329 9.62731C10.1001 9.68248 10.0489 9.72431 9.98828 9.74545C9.92766 9.76658 9.86154 9.76566 9.80153 9.74285L8.45973 9.20379C8.18033 9.41894 7.87457 9.5975 7.54989 9.73512L7.34927 11.1596C7.33804 11.2235 7.305 11.2814 7.25579 11.3235C7.20659 11.3657 7.14428 11.3894 7.0795 11.3907H4.92044C4.85684 11.3895 4.79554 11.3667 4.74655 11.3262C4.69755 11.2856 4.66375 11.2296 4.65067 11.1674L4.45005 9.74285C4.12447 9.60683 3.81849 9.42799 3.54021 9.21106L2.19841 9.75012C2.13843 9.77295 2.07232 9.7739 2.01171 9.75281C1.95109 9.73172 1.89986 9.68994 1.867 9.63481L0.787472 7.77129C0.754978 7.71563 0.743337 7.65022 0.754629 7.58676C0.765921 7.5233 0.799411 7.46593 0.849113 7.42489L1.99028 6.53145C1.96594 6.35536 1.9531 6.17788 1.95185 6.00012C1.95282 5.82492 1.96566 5.64999 1.99028 5.47653L0.849113 4.58309C0.799411 4.54205 0.765921 4.48467 0.754629 4.42121C0.743337 4.35776 0.754978 4.29235 0.787472 4.23668L1.867 2.37293C1.89982 2.31776 1.95104 2.27593 2.01166 2.25479C2.07228 2.23366 2.1384 2.23458 2.19841 2.25739L3.54021 2.79645C3.81961 2.5813 4.12537 2.40274 4.45005 2.26512L4.65067 0.840591C4.6619 0.776782 4.69494 0.718853 4.74415 0.676703C4.79335 0.634553 4.85566 0.610798 4.92044 0.609497H7.0795C7.1431 0.610735 7.2044 0.633495 7.25339 0.674062C7.30239 0.714629 7.33619 0.770606 7.34927 0.832856L7.54989 2.25739C7.87588 2.39332 8.18226 2.57216 8.46091 2.78918L9.80153 2.25012C9.86151 2.22729 9.92762 2.22634 9.98823 2.24743C10.0488 2.26852 10.1001 2.3103 10.1329 2.36543L11.2125 4.22918C11.245 4.28485 11.2566 4.35026 11.2453 4.41372C11.234 4.47717 11.2005 4.53455 11.1508 4.57559L10.0097 5.46903C10.034 5.64504 10.0468 5.82244 10.0481 6.00012Z" fill="#718096"/>
</svg>
